<svg xmlns="http://www.w3.org/2000/svg" id="Layer_1" viewBox="0 0 500.8 85.52"><defs><style>.cls-1{fill:#fff}.cls-2{fill:#00b78e}</style></defs><path d="M162.8 44.42c0 18.8-11 30.6-28.6 30.6s-28.6-11.7-28.6-30.6 11-30.6 28.6-30.6c17.6-.1 28.6 11.7 28.6 30.6Zm-44.5 0c0 12.4 6.2 20.2 15.9 20.2s15.9-7.8 15.9-20.2-6.2-20.3-15.9-20.3-15.9 7.9-15.9 20.3ZM222.4 74.02v-40h-.3l-16.1 40h-7.8l-16.1-40h-.3v40h-11v-59.2h14.4l16.8 42.5h.3l16.8-42.5h14.4v59.2h-11.1ZM265.5 14.82c12.1 0 20.5 8.1 20.5 20.3s-8.7 20.3-21.1 20.3h-11.1v18.6h-12.4v-59.2h24.1Zm-11.7 30.8h8.4c7.1 0 11.2-3.8 11.2-10.5s-4.1-10.5-11.2-10.5h-8.4v21ZM294 74.02v-59.2h38.8v10.2h-26.4v15.9h24.1v9.8h-24.1v23.3H294ZM366.4 30.12H378v7.8h.2c2.3-5.5 7-8.7 13.7-8.7 9.8 0 15.3 6.2 15.3 16.5v28.3h-12v-25.8c0-5.7-2.7-9-8.1-9s-8.8 3.9-8.8 9.6v25.2h-12v-43.9h.1ZM455.6 60.62c-1.3 8.6-9.2 14.4-20.1 14.4-13.5 0-21.7-8.7-21.7-22.7s8.2-23.1 21.2-23.1 20.9 8.7 20.9 22v3.7h-30.3v.7c0 6.3 4 10.6 10.1 10.6 4.4 0 7.8-2.2 8.9-5.5h11v-.1Zm-29.8-13.2h18.7c-.2-5.6-3.9-9.5-9.2-9.5-5.3.1-9.1 4.1-9.5 9.5ZM479.2 58.82l-8.3 15.2h-12.6l13.8-21.9-13.7-22.1h13.5l7.9 14.9h.2l7.8-14.9h13l-13.7 21.7 13.7 22.3h-13l-8.4-15.3h-.2v.1Z" class="cls-1"/><path d="M358.5 74.02v-44h-17.8v7.3h2.9c1.6 0 2.9 1.3 2.9 2.9v33.8h12ZM344.8 17.92c0-3.4 2.7-6.2 6.2-6.2s6.2 2.7 6.2 6.2-2.7 6.2-6.2 6.2c-3.5-.1-6.2-2.8-6.2-6.2ZM85.4 42.42c.2 23.6-19.1 43.1-42.7 43.1-2.7 0-5.3-.2-7.8-.7l14.3-35.2h10.4l10.2-39.9a42.5 42.5 0 0 1 15.6 32.7ZM69.8 9.72l-35.3 37.2H19.1L7 66.12c-4.5-6.8-7.1-15.1-7-23.9C.3 19.42 18.8.62 41.6.02c10.7-.3 20.6 3.4 28.2 9.7Z" class="cls-2"/></svg>